<?xml version="1.0" encoding="UTF-8"?>
<svg width="512" height="512" viewBox="0 0 512 512" xmlns="http://www.w3.org/2000/svg">
  <!-- Background circle -->
  <circle cx="256" cy="256" r="240" fill="#000000" stroke="#FFFFFF" stroke-width="12"/>
  
  <!-- Chef's hat -->
  <path d="M256 110
           C210 110 180 140 180 180
           C180 200 190 215 200 225
           L200 280
           L312 280
           L312 225
           C322 215 332 200 332 180
           C332 140 302 110 256 110Z" 
        fill="none" stroke="#FFFFFF" stroke-width="16" stroke-linejoin="round"/>
  
  <!-- Chef's hat band -->
  <path d="M190 225 L322 225" stroke="#FFFFFF" stroke-width="10"/>
  
  <!-- Cooking pot -->
  <path d="M170 300
           C170 300 170 380 256 380
           C342 380 342 300 342 300Z"
        fill="none" stroke="#FFFFFF" stroke-width="16" stroke-linejoin="round"/>
  
  <!-- Pot handles -->
  <path d="M150 320 L170 320" stroke="#FFFFFF" stroke-width="12" stroke-linecap="round"/>
  <path d="M342 320 L362 320" stroke="#FFFFFF" stroke-width="12" stroke-linecap="round"/>
  
  <!-- Steam lines -->
  <path d="M220 290 C220 270 240 270 240 250" fill="none" stroke="#FFFFFF" stroke-width="8" stroke-linecap="round"/>
  <path d="M256 290 C256 260 276 260 276 230" fill="none" stroke="#FFFFFF" stroke-width="8" stroke-linecap="round"/>
  <path d="M292 290 C292 270 272 270 272 250" fill="none" stroke="#FFFFFF" stroke-width="8" stroke-linecap="round"/>
</svg>